<svg width="34" height="34" viewBox="0 0 34 34" fill="none" xmlns="http://www.w3.org/2000/svg">
<rect width="34" height="34" rx="17" fill="#2976E9"/>
<path d="M9.00232 16.9377C13.5796 14.6915 19.5029 11.953 20.3205 11.5739C22.4653 10.5818 23.1234 10.772 22.7953 12.969C22.5596 14.5481 21.8797 19.7763 21.3378 23.0304C21.0162 24.9601 20.2947 25.1889 19.1602 24.354C18.6146 23.9522 15.8609 21.9209 15.2633 21.444C14.7177 21.0093 13.9653 20.4864 14.9089 19.4566C15.2447 19.0897 17.4459 16.7452 19.1609 14.9203C19.3856 14.6806 19.1034 14.2869 18.8441 14.4791C16.5325 16.189 13.3276 18.5624 12.9196 18.8715C12.3034 19.3383 11.7116 19.5524 10.6492 19.212C9.84653 18.9548 9.06241 18.6481 8.75721 18.5311C7.58194 18.081 7.86091 17.498 9.00232 16.9377Z" fill="white"/>
</svg>
