<svg width="34" height="34" viewBox="0 0 34 34" fill="none" xmlns="http://www.w3.org/2000/svg">
<rect width="34" height="34" rx="17" fill="#2976E9"/>
<path d="M14.3464 24.8125C20.7618 24.8125 24.2701 19.4989 24.2701 14.8913C24.2701 14.7404 24.267 14.5901 24.2602 14.4406C24.9411 13.9484 25.5331 13.3341 26 12.635C25.3751 12.9127 24.7025 13.0996 23.997 13.184C24.7171 12.7522 25.2701 12.0694 25.5307 11.2553C24.8568 11.6547 24.1105 11.9449 23.316 12.1016C22.6796 11.4239 21.7733 11 20.77 11C18.8439 11 17.282 12.5616 17.282 14.4865C17.282 14.7602 17.3126 15.0263 17.3724 15.2816C14.4736 15.1357 11.9031 13.7483 10.183 11.6383C9.88351 12.1536 9.71075 12.7523 9.71075 13.3911C9.71075 14.6007 10.3266 15.6688 11.2629 16.2935C10.6906 16.2759 10.1532 16.1189 9.68326 15.8574C9.68274 15.8721 9.68274 15.8864 9.68274 15.9019C9.68274 17.5907 10.8849 19.0007 12.481 19.3202C12.1879 19.3999 11.8795 19.4429 11.5613 19.4429C11.3369 19.4429 11.1183 19.4208 10.9057 19.38C11.3498 20.7655 12.6374 21.7736 14.164 21.8019C12.9702 22.7373 11.4664 23.2945 9.83202 23.2945C9.55083 23.2945 9.27302 23.2784 9 23.2463C10.5436 24.2354 12.3765 24.8125 14.3464 24.8125Z" fill="white"/>
</svg>
