<svg width="34" height="34" viewBox="0 0 34 34" fill="none" xmlns="http://www.w3.org/2000/svg">
<rect width="34" height="34" rx="17" fill="#2976E9"/>
<path d="M25.9651 22.4767C25.2275 21.0773 23.3272 19.3957 22.5428 18.664C22.3281 18.4636 22.3051 18.117 22.5005 17.8955C23.9976 16.1996 25.195 14.251 25.6072 13.0736C25.789 12.5535 25.4126 12.0039 24.8822 12.0039H23.3416C22.8338 12.0039 22.5366 12.196 22.395 12.502C21.1507 15.1896 20.0834 16.3528 19.3363 17.0326C18.918 17.4134 18.2657 17.0979 18.2657 16.5185C18.2657 15.4021 18.2657 13.959 18.2657 12.9356C18.2657 12.4392 17.8806 12.0376 17.4057 12.0376L14.5912 12.0039C14.237 12.0039 14.0346 12.4267 14.2472 12.7231L14.7119 13.4263C14.8868 13.6699 14.9812 13.9663 14.9812 14.2705L14.9788 17.4372C14.9788 17.9881 14.3453 18.2572 13.9693 17.8712C12.6972 16.5653 11.5933 13.8984 11.1959 12.6231C11.081 12.254 10.753 12.0048 10.3811 12.0039L8.86345 12C8.29408 12 7.87782 12.569 8.03258 13.142C9.41927 18.2728 12.2645 23.1539 17.3351 23.6832C17.8347 23.7351 18.2657 23.311 18.2657 22.7861V21.1219C18.2657 20.6446 18.6208 20.2343 19.0773 20.2222C19.0933 20.2218 19.1093 20.2218 19.1253 20.2218C20.4664 20.2218 21.9685 22.2794 22.4939 23.2418C22.645 23.5187 22.9274 23.6875 23.2328 23.6875H25.2743C25.8699 23.6875 26.2521 23.0215 25.9651 22.4767Z" fill="white"/>
</svg>
